<?xml version="1.0" standalone="no"?>
<!DOCTYPE svg PUBLIC "-//W3C//DTD SVG 20010904//EN"
 "http://www.w3.org/TR/2001/REC-SVG-20010904/DTD/svg10.dtd">
<svg version="1.0" xmlns="http://www.w3.org/2000/svg"
 width="512.000000pt" height="512.000000pt" viewBox="0 0 512.000000 512.000000"
 preserveAspectRatio="xMidYMid meet">
<metadata>
Created by potrace 1.14, written by Peter Selinger 2001-2017
</metadata>
<g transform="translate(0.000000,512.000000) scale(0.100000,-0.100000)"
fill="#000000" stroke="none">
<path d="M1475 4693 c-174 -14 -316 -75 -422 -181 -80 -79 -93 -96 -132 -176
-69 -139 -64 9 -66 -1959 l-1 -1779 21 -46 c12 -26 33 -57 46 -69 58 -53 166
-70 231 -37 18 9 145 91 281 182 l248 164 161 -162 c89 -89 179 -170 201 -181
47 -25 120 -26 172 -5 25 11 94 71 188 164 81 81 150 149 153 152 3 2 73 -64
157 -148 98 -98 166 -157 191 -168 53 -21 126 -20 174 5 21 11 112 93 201 182
l162 162 247 -165 c136 -91 262 -173 280 -182 62 -32 164 -18 221 30 13 11 35
39 49 64 l27 45 0 1780 c0 1650 -2 1785 -18 1843 -64 237 -246 415 -479 468
-66 15 -178 17 -1168 18 -602 1 -1108 0 -1125 -1z m2235 -445 c47 -21 84 -57
109 -106 21 -41 21 -43 21 -1573 0 -1228 -2 -1530 -12 -1522 -7 5 -87 59 -178
119 l-164 109 -71 0 c-92 -1 -106 -10 -280 -185 -77 -77 -144 -140 -149 -140
-4 0 -74 66 -155 146 -165 166 -202 189 -286 181 -28 -3 -65 -12 -82 -20 -16
-9 -97 -83 -179 -166 l-149 -150 -160 158 c-141 139 -166 159 -207 169 -99 25
-126 14 -348 -137 l-135 -91 -3 1512 c-2 1062 1 1526 8 1557 17 68 68 122 136
146 26 9 317 11 1142 10 985 -1 1111 -3 1142 -17z"/>
<path d="M1960 3615 c-147 -32 -239 -141 -248 -294 -4 -66 -1 -84 22 -136 36
-79 87 -131 166 -167 58 -27 72 -30 141 -26 176 10 302 140 302 312 0 130 -68
238 -183 290 -68 30 -128 37 -200 21z"/>
<path d="M3112 3604 c-64 -30 -1363 -1330 -1387 -1387 -62 -150 60 -313 221
-293 23 2 56 11 71 20 46 23 1351 1333 1375 1379 35 70 20 177 -35 235 -60 65
-165 84 -245 46z"/>
<path d="M2993 2541 c-196 -67 -278 -297 -167 -472 34 -54 71 -86 134 -117 77
-37 192 -38 265 -2 199 97 248 357 96 510 -88 89 -214 120 -328 81z"/>
</g>
</svg>
